<svg width="244" height="69" viewBox="0 0 244 69" fill="none" xmlns="http://www.w3.org/2000/svg">
<mask id="mask0_124_188" style="mask-type:alpha" maskUnits="userSpaceOnUse" x="0" y="0" width="244" height="70">
<path fill-rule="evenodd" clip-rule="evenodd" d="M43.6593 39.4064L28.6373 48.271C28.1065 48.5895 27.443 48.5895 26.9387 48.3241L14.2523 41.4766C13.1907 40.9193 12.5803 39.8045 12.5803 38.6633L12.7395 25.0745C12.7395 23.9863 13.3499 22.9247 14.3319 22.3939L28.3985 14.0867C28.5577 14.0071 28.77 14.0071 28.9293 14.0867L40.3683 20.2706C40.5541 20.3503 40.7399 20.3503 40.8991 20.2706L52.3912 13.4497C52.7628 13.2108 52.7628 12.68 52.3912 12.5208L29.9378 0.391711C28.9293 -0.139101 27.788 -0.139101 26.8591 0.444793L1.88438 15.1748C0.955463 15.7322 0.371569 16.7673 0.291947 17.8554L0 46.0947C0 47.289 0.610434 48.3772 1.67206 48.908L26.5141 62.2845C27.5226 62.8153 28.717 62.8153 29.6459 62.2048L54.6737 46.944C55.0453 46.7051 55.2841 46.3335 55.2841 45.8824L55.4434 32.8244C55.4434 32.4528 54.9922 32.2139 54.6737 32.3732L43.6593 39.4064ZM29.6458 29.4278L28.9823 29.7994C28.0534 30.3567 26.8325 30.3567 25.9036 29.879L16.349 24.8097C15.8712 24.5709 15.3404 24.8894 15.3404 25.4202V37.4962C15.3404 38.1597 15.6589 38.717 16.2428 39.0886L26.169 44.8745C26.8591 45.246 27.7614 45.246 28.3984 44.8745L54.0367 29.7463C54.3551 29.5605 54.5675 29.1889 54.594 28.7378L54.8329 15.5205C54.8329 15.202 54.4613 14.9632 54.1694 15.149L29.6458 29.4278ZM36.3869 22.7657L27.8408 27.8084C27.6551 27.9411 27.3896 27.9411 27.1508 27.8615L18.7374 23.2965C18.2862 23.0576 18.2862 22.3941 18.7374 22.1552L27.3366 17.0594C27.5489 16.9798 27.8143 16.9798 28.0001 17.0594L36.3869 21.6244C36.8381 21.8633 36.8381 22.5268 36.3869 22.7657ZM66.5111 32.8521C66.5111 30.5696 66.8827 28.4994 67.5993 26.4293C68.2893 24.4387 69.404 22.687 70.7842 21.2273C72.1643 19.7676 73.8629 18.5732 75.8269 17.6443C77.8174 16.795 80.0468 16.3173 82.6213 16.3173C84.2933 16.3173 85.8062 16.4765 87.1863 16.7685C88.5664 17.0604 89.9465 17.4585 91.2204 18.069L89.3626 25.1553C88.5133 24.8368 87.6109 24.5449 86.6024 24.306C85.5938 24.0671 84.5322 23.9344 83.2583 23.9344C80.6573 23.9344 78.6933 24.7572 77.3928 26.3762C76.0923 27.9952 75.4288 30.1184 75.4288 32.799C75.4288 35.6123 76.0392 37.7886 77.2335 39.3545C78.4279 40.9204 80.5777 41.6636 83.5502 41.6636C84.6384 41.6636 85.7796 41.584 87.0005 41.3716C88.2214 41.1593 89.3626 40.8408 90.3711 40.4427L91.592 47.7148C90.5304 48.166 89.283 48.5376 87.7436 48.8561C86.1512 49.1746 84.5322 49.3338 82.6213 49.3338C79.7814 49.3338 77.2866 48.8826 75.2695 48.0333C73.2259 47.184 71.5273 46.0428 70.1737 44.583C68.8202 43.1233 67.8912 41.3982 67.2808 39.3811C66.8296 37.364 66.5111 35.2142 66.5111 32.8521ZM121.477 39.5138C122.194 37.4967 122.565 35.2407 122.565 32.7725C122.565 30.3307 122.167 28.1013 121.504 26.0311C120.814 23.9875 119.699 22.2889 118.372 20.8557C117.045 19.4225 115.453 18.3344 113.542 17.5116C111.631 16.6888 109.587 16.3173 107.305 16.3173C105.075 16.3173 103.032 16.6888 101.121 17.5116C99.2362 18.3344 97.5907 19.4225 96.2371 20.8557C94.8836 22.2889 93.7954 24.0141 93.0257 26.0311C92.256 28.0482 91.8845 30.3042 91.8845 32.7725C91.8845 35.2407 92.256 37.4702 93.0257 39.5138C93.7158 41.5309 94.8305 43.2826 96.1575 44.7158C97.4845 46.1755 99.077 47.2637 100.988 48.0864C102.899 48.9092 104.969 49.2807 107.251 49.2807C109.587 49.2807 111.657 48.9092 113.568 48.0864C115.453 47.2902 117.072 46.1489 118.399 44.7158C119.726 43.3091 120.787 41.5574 121.477 39.5138ZM111.896 26.2966C112.984 27.889 113.515 30.0122 113.515 32.7725C113.515 35.5327 112.958 37.6825 111.896 39.2749C110.834 40.8939 109.322 41.7167 107.251 41.7167C105.181 41.7167 103.615 40.8939 102.527 39.2749C101.413 37.6559 100.855 35.5327 100.855 32.7725C100.855 30.0122 101.439 27.889 102.527 26.2966C103.642 24.7572 105.261 23.9875 107.251 23.9875C109.242 23.9875 110.808 24.7041 111.896 26.2966ZM153.406 44.583C153.406 49.7053 152.105 53.5007 149.504 55.9689C146.903 58.4372 142.922 59.6846 137.428 59.6846C135.517 59.6846 133.633 59.4988 131.722 59.1538C129.811 58.8353 128.059 58.3841 126.44 57.8268L128.033 50.3689C129.413 50.9262 130.873 51.3774 132.385 51.6959C133.898 52.0144 135.676 52.1736 137.587 52.1736C140.109 52.1736 141.913 51.6163 142.949 50.5016C144.01 49.4134 144.541 47.9802 144.541 46.2285V45.0873C143.612 45.5385 142.577 45.857 141.595 46.0958C140.586 46.3347 139.525 46.4143 138.251 46.4143C133.925 46.4143 130.607 45.1138 128.325 42.5659C126.042 40.018 124.874 36.435 124.874 31.817C124.874 29.5345 125.246 27.4643 125.963 25.5534C126.653 23.6424 127.714 22.05 129.094 20.723C130.474 19.3959 132.146 18.3609 134.137 17.5912C136.128 16.9011 138.357 16.503 140.878 16.503C141.967 16.503 143.081 16.5561 144.222 16.6623C145.182 16.7515 146.103 16.8594 147.05 16.9704L147.05 16.9704C147.23 16.9915 147.411 17.0126 147.593 17.0338L147.716 17.0518C148.765 17.2052 149.833 17.3613 150.778 17.5912L150.906 17.6216L150.907 17.6217L150.907 17.6218C151.864 17.8483 152.722 18.0515 153.459 18.2547V44.583H153.406ZM133.951 31.8435C133.951 36.7801 135.942 39.3014 139.923 39.3014C140.825 39.3014 141.675 39.2218 142.497 38.9298C143.32 38.691 143.957 38.399 144.541 38.0806V23.9609C144.09 23.8813 143.612 23.8017 142.949 23.7751C142.338 23.7221 141.648 23.6955 140.878 23.6955C138.569 23.6955 136.791 24.4652 135.676 26.0046C134.509 27.5174 133.951 29.4814 133.951 31.8435ZM158.554 25.8187C157.705 27.8889 157.253 30.3306 157.253 33.0909C157.253 35.4264 157.598 37.5497 158.342 39.5668C159.032 41.5042 160.014 43.2559 161.394 44.6891C162.774 46.1223 164.499 47.2635 166.569 48.1129C168.639 48.8825 171.108 49.3337 173.921 49.3337C175.036 49.3337 176.177 49.3072 177.265 49.1479C178.406 49.0152 179.468 48.8825 180.397 48.6967C181.235 48.5608 181.977 48.3668 182.688 48.1809C182.81 48.149 182.93 48.1174 183.051 48.0863C183.874 47.874 184.484 47.6351 184.962 47.3962L183.767 40.1772C182.759 40.6018 181.512 40.9734 179.919 41.2654C178.327 41.5573 176.734 41.7166 175.115 41.7166C172.541 41.7166 170.55 41.1857 169.037 40.0976C167.525 39.0625 166.649 37.5762 166.463 35.7715H186.554C186.554 35.2937 186.581 34.7629 186.634 34.1525C186.687 33.542 186.687 32.9847 186.687 32.4539C186.687 27.1988 185.413 23.1647 182.839 20.4841C180.238 17.7769 176.734 16.3968 172.302 16.3968C170.391 16.3968 168.533 16.7949 166.728 17.485C164.924 18.175 163.305 19.2366 161.925 20.6168C160.544 22.0234 159.403 23.7486 158.554 25.8187ZM177.769 27.5173C177.955 28.2605 178.088 28.9505 178.141 29.7202V29.7467H166.463C166.569 28.9771 166.781 28.2074 167.02 27.5173C167.259 26.7476 167.631 26.1107 168.109 25.5533C168.586 24.996 169.223 24.5448 169.913 24.2263C170.63 23.8813 171.479 23.6955 172.488 23.6955C173.47 23.6955 174.372 23.8547 175.062 24.2263C175.699 24.5978 176.283 25.049 176.761 25.6064C177.212 26.1903 177.584 26.8273 177.769 27.5173ZM190.509 18.334C192.022 17.8829 193.96 17.4847 196.375 17.1132C198.737 16.7416 201.258 16.5558 203.859 16.5558C206.513 16.5558 208.69 16.8743 210.495 17.6175C212.246 18.3075 213.679 19.2895 214.688 20.5635C215.75 21.864 216.44 23.3237 216.891 25.0754C217.342 26.8271 217.554 28.7911 217.554 30.9408V48.5904H208.69V32.029C208.69 29.1892 208.318 27.1455 207.548 25.9512C206.779 24.7569 205.346 24.1465 203.329 24.1465C202.936 24.1465 202.5 24.1684 202.048 24.1911C201.797 24.2037 201.541 24.2166 201.285 24.2261C200.899 24.2403 200.545 24.2853 200.208 24.328C199.919 24.3646 199.644 24.3996 199.374 24.4119V48.4842H190.509V18.334ZM222.332 9.40809L222.278 9.41668V9.39013H222.332V9.40809ZM222.332 9.40809L231.143 7.98348V17.2196H241.759V24.5714H231.143V35.5857C231.143 37.4436 231.462 38.9564 232.152 40.0446C232.842 41.1327 234.142 41.7166 236.106 41.7166C237.035 41.7166 238.07 41.637 239.052 41.4247C240.061 41.2389 241.016 40.9735 241.812 40.655L243.033 47.529C241.945 47.9802 240.751 48.3518 239.45 48.6703C238.123 48.9888 236.557 49.148 234.646 49.148C232.205 49.148 230.214 48.8295 228.675 48.1395C227.082 47.4759 225.835 46.547 224.879 45.3792C223.951 44.1849 223.26 42.8048 222.889 41.1062C222.517 39.4341 222.332 37.6028 222.332 35.6123V9.40809ZM165.719 67.4874H170.603V68.8676H163.968V55.093H165.719V67.4874ZM186.102 65.6558H192.127L193.321 68.8407H195.232L190.137 55.3315H188.146L183.05 68.8407H184.961L186.102 65.6558ZM189.075 57.3751L191.596 64.3022H186.554L189.075 57.3751ZM217.447 62.9225C217.978 63.5329 218.269 64.3026 218.269 65.1253C218.269 66.2666 217.898 67.1159 217.128 67.8059C216.359 68.4694 215.27 68.8145 213.784 68.8145H208.662V55.093H213.704C215.085 55.093 216.146 55.3849 216.836 55.9953C217.526 56.6058 217.924 57.4551 217.924 58.5167C217.924 59.4191 217.686 60.1357 217.234 60.6665C216.757 61.2239 216.146 61.5689 215.43 61.7281C216.252 61.9139 216.916 62.312 217.447 62.9225ZM210.467 61.0911H213.413C214.262 61.0911 214.925 60.9054 215.403 60.4807C215.881 60.1091 216.093 59.5518 216.093 58.7821C216.093 58.0921 215.854 57.5612 215.43 57.1101C215.005 56.6589 214.288 56.4996 213.359 56.4996H210.467V61.0911ZM215.642 66.7178C216.173 66.2666 216.412 65.6561 216.412 64.913C216.412 64.1699 216.12 63.5329 215.589 63.1082C215.058 62.657 214.288 62.4447 213.386 62.4447H210.44V67.3282H213.439C214.395 67.3282 215.111 67.1424 215.642 66.7178ZM238.944 68.4698C239.555 68.0982 240.059 67.647 240.377 67.0897C240.669 66.5058 240.882 65.8953 240.908 65.2583C240.908 64.409 240.722 63.719 240.351 63.1882C239.979 62.6574 239.502 62.2327 238.971 61.9938C238.44 61.7284 237.723 61.463 236.821 61.1711C236.705 61.1309 236.593 61.0922 236.484 61.0548C235.946 60.8697 235.498 60.7152 235.122 60.5607C234.671 60.3483 234.353 60.1095 234.061 59.791C233.769 59.4194 233.61 59.0213 233.61 58.4905C233.61 57.8004 233.822 57.2696 234.273 56.898C234.671 56.5265 235.282 56.3407 235.972 56.3407C236.741 56.3407 237.352 56.4999 237.83 56.9511C238.307 57.3227 238.599 57.827 238.679 58.3843H240.59C240.431 57.3227 240.032 56.5265 239.21 55.863C238.44 55.1729 237.325 54.8544 235.998 54.8544C235.096 54.8544 234.379 55.0137 233.716 55.3056C233.105 55.6772 232.574 56.0753 232.256 56.6061C231.911 57.19 231.725 57.827 231.725 58.517C231.725 59.3132 231.911 59.9768 232.283 60.5076C232.601 61.0384 233.079 61.41 233.61 61.6488C234.087 61.9142 234.83 62.1796 235.68 62.4716C236.27 62.6403 236.743 62.8425 237.139 63.0117C237.242 63.0554 237.339 63.0969 237.431 63.1351C237.856 63.3474 238.228 63.6394 238.52 63.9579C238.812 64.3294 238.971 64.7806 238.971 65.338C238.971 66.028 238.812 66.5058 238.36 66.9569C237.936 67.3816 237.325 67.5674 236.556 67.5674C235.972 67.5674 235.494 67.4347 235.043 67.1958C234.592 66.9569 234.273 66.665 234.034 66.2934C233.848 65.9219 233.716 65.5238 233.663 65.1522H231.752C231.778 65.9219 232.044 66.5854 232.442 67.1427C232.84 67.7001 233.45 68.2044 234.14 68.5228C234.884 68.8413 235.68 69.0006 236.582 69.0006C237.511 69.0006 238.334 68.8413 238.944 68.4698Z" fill="white"/>
</mask>
<g mask="url(#mask0_124_188)">
<rect x="-7.29175" y="-31.5762" width="262.504" height="126.391" rx="7.29177" fill="white"/>
</g>
</svg>
