<svg width="51" height="50" viewBox="0 0 51 50" fill="none" xmlns="http://www.w3.org/2000/svg">
<path d="M7.32962 24.272C9.64579 24.272 11.9187 24.272 14.2565 24.272C14.2565 23.7352 14.2565 23.2187 14.2565 22.7022C14.2565 21.6232 14.2741 20.5428 14.2484 19.4638C14.2376 18.9825 14.4174 18.6864 14.8338 18.4484C17.8464 16.7245 20.8467 14.9789 23.8619 13.2576C24.1824 13.0751 24.3054 12.8845 24.3013 12.514C24.2824 10.7941 24.2932 9.07556 24.2932 7.32863C23.1561 7.02981 22.2691 6.4146 21.7215 5.36536C21.3145 4.58519 21.2199 3.75499 21.4011 2.90722C21.7824 1.12784 23.386 -0.0809512 25.2046 0.00423191C26.9096 0.0840066 28.4118 1.44558 28.643 3.10868C28.9066 5.00164 27.8195 6.79049 25.7102 7.32863C25.7102 8.61178 25.7075 9.90711 25.7116 11.2024C25.7129 11.792 25.5358 12.491 25.7914 12.9385C26.0456 13.3834 26.7392 13.5821 27.2462 13.8756C29.8558 15.3872 32.4627 16.9056 35.0858 18.3943C35.5766 18.6729 35.7659 19.0082 35.7551 19.5666C35.7253 21.1161 35.7443 22.6656 35.7443 24.253C38.0618 24.253 40.3469 24.253 42.6806 24.253C42.9713 23.1227 43.6176 22.2167 44.7115 21.68C45.4971 21.2946 46.3286 21.2162 47.1764 21.4231C48.9368 21.853 50.101 23.4418 49.9955 25.2401C49.8955 26.9437 48.5123 28.4419 46.8546 28.6433C44.867 28.884 43.358 27.8429 42.6793 25.7376C40.4023 25.7376 38.1145 25.7376 35.7443 25.7376C35.7443 25.908 35.7443 26.0851 35.7443 26.2609C35.7443 27.6603 35.724 29.0611 35.7537 30.4606C35.7659 31.0028 35.5739 31.3246 35.1034 31.5936C32.1166 33.296 29.1487 35.0294 26.1632 36.7317C25.8049 36.9358 25.694 37.1644 25.6994 37.5605C25.7211 39.2628 25.7089 40.9651 25.7089 42.6566C28.1927 43.3692 28.8958 45.3609 28.6295 46.9685C28.3455 48.6844 26.7811 49.9918 25.0234 50C23.2616 50.0081 21.6931 48.7357 21.3794 47.0131C21.0982 45.4663 21.708 43.4165 24.2919 42.6526C24.2919 40.8597 24.3013 39.056 24.2757 37.2522C24.2729 37.0954 24.0742 36.8872 23.9133 36.7939C20.9278 35.0564 17.941 33.3216 14.938 31.6153C14.4296 31.3273 14.2308 30.9852 14.2457 30.4051C14.2808 29.0233 14.2565 27.6387 14.2565 26.2555C14.2565 26.0919 14.2565 25.9269 14.2565 25.7349C11.9187 25.7349 9.63092 25.7349 7.3445 25.7349C6.4521 27.997 4.885 29.0219 2.94202 28.6136C1.19238 28.2458 -0.0434495 26.6787 0.00117023 24.8818C0.0430857 23.1551 1.38844 21.6137 3.07182 21.3622C4.88771 21.0931 6.7374 22.0572 7.32962 24.272ZM16.4185 19.1785C16.5105 19.2583 16.5443 19.2975 16.5862 19.3219C19.2972 20.8876 22.0068 22.4574 24.7286 24.0042C24.8828 24.0921 25.1829 24.0651 25.3465 23.9718C27.2652 22.886 29.1717 21.7773 31.0808 20.674C31.9083 20.1953 32.7358 19.7167 33.5579 19.2394C33.5336 19.184 33.5309 19.165 33.52 19.1596C30.7536 17.5547 27.9886 15.9497 25.2154 14.3569C25.1018 14.292 24.8814 14.3042 24.7624 14.3718C21.9892 15.9605 19.2215 17.5614 16.4185 19.1785ZM34.3056 20.4901C34.1799 20.5469 34.0879 20.5793 34.0055 20.6267C31.335 22.1654 28.6687 23.7108 25.9915 25.2374C25.7048 25.401 25.7089 25.6092 25.7089 25.8647C25.7116 28.8651 25.7102 31.8668 25.7102 34.8671C25.7102 35.0091 25.7102 35.1511 25.7102 35.3512C25.859 35.2782 25.9333 35.2457 26.0023 35.2051C28.6714 33.6637 31.3364 32.1156 34.0136 30.589C34.3083 30.42 34.3327 30.2131 34.3327 29.9292C34.3273 26.9451 34.33 23.961 34.3286 20.9769C34.3273 20.8308 34.3151 20.6834 34.3056 20.4901ZM24.2932 35.362C24.2932 32.1385 24.2865 29.0192 24.3027 25.9012C24.304 25.5308 24.1851 25.3334 23.87 25.1535C21.2672 23.6662 18.6738 22.1613 16.0764 20.6645C15.9656 20.601 15.8439 20.5563 15.6992 20.4914C15.6884 20.6185 15.6762 20.701 15.6762 20.7822C15.6749 23.8677 15.6816 26.9532 15.6667 30.0387C15.6654 30.3524 15.8141 30.4782 16.0467 30.6107C18.2222 31.86 20.3937 33.1175 22.5679 34.3722C23.1155 34.6886 23.6672 35.0037 24.2932 35.362ZM46.3164 27.2628C47.5644 27.2615 48.5731 26.2636 48.5839 25.0224C48.5948 23.7568 47.5807 22.7373 46.311 22.7387C45.0657 22.74 44.053 23.7379 44.0395 24.9778C44.026 26.2352 45.0522 27.2642 46.3164 27.2628ZM27.2638 46.3141C27.2652 45.0688 26.2673 44.0547 25.0274 44.0398C23.7673 44.025 22.7397 45.0458 22.7397 46.3127C22.7397 47.5607 23.7348 48.5721 24.976 48.5843C26.2403 48.5978 27.2625 47.5824 27.2638 46.3141ZM27.2625 3.67657C27.2571 2.40694 26.2335 1.39961 24.9652 1.41719C23.724 1.43342 22.7329 2.4475 22.7383 3.69685C22.7437 4.94215 23.7456 5.95353 24.9842 5.96164C26.243 5.97111 27.2692 4.94215 27.2625 3.67657ZM3.7019 27.2628C4.9472 27.2547 5.95588 26.2501 5.96264 25.0116C5.9694 23.7514 4.94179 22.7305 3.67351 22.7387C2.40387 22.7468 1.39925 23.7717 1.41683 25.0386C1.43576 26.2798 2.45255 27.2709 3.7019 27.2628Z" fill="url(#paint0_linear_3606_29703)"/>
<path d="M24.9881 22.4647C24.8056 22.3849 24.6298 22.3268 24.4716 22.2362C23.1276 21.4655 21.7836 20.6934 20.4464 19.9119C19.7257 19.4901 19.7297 18.9114 20.4531 18.4895C21.7917 17.7093 23.1398 16.944 24.4743 16.1598C24.8326 15.9489 25.1544 15.9381 25.5141 16.149C26.8662 16.94 28.2291 17.712 29.5799 18.5044C30.2695 18.9086 30.2667 19.5009 29.5745 19.9065C28.2237 20.6988 26.8635 21.4763 25.5046 22.2538C25.3478 22.3444 25.1666 22.393 24.9881 22.4647ZM27.956 19.2034C26.996 18.6463 26.1131 18.1271 25.2193 17.6268C25.1125 17.5674 24.9191 17.5592 24.815 17.616C23.9078 18.1204 23.0127 18.645 22.0513 19.2007C23.0194 19.7605 23.9294 20.2946 24.8502 20.8097C24.9408 20.8597 25.1179 20.8341 25.218 20.7773C26.109 20.277 26.9919 19.7605 27.956 19.2034Z" fill="url(#paint1_linear_3606_29703)"/>
<path d="M32.9114 26.6473C32.9114 27.4397 32.9019 28.232 32.9154 29.023C32.9222 29.4029 32.7708 29.6625 32.4463 29.8491C31.059 30.6455 29.6798 31.4568 28.2885 32.2437C27.6584 32.6007 27.1352 32.2843 27.1311 31.5542C27.1216 29.9533 27.1081 28.351 27.1487 26.7515C27.1554 26.4878 27.3664 26.1268 27.5922 25.9889C28.97 25.1451 30.3748 24.3447 31.7824 23.5496C32.3895 23.2076 32.8979 23.5185 32.9087 24.2216C32.9208 25.0289 32.91 25.8388 32.9114 26.6473ZM31.4944 25.348C30.5006 25.9185 29.5974 26.4324 28.7023 26.961C28.6225 27.0084 28.5522 27.1476 28.5522 27.245C28.5414 28.2847 28.5454 29.3245 28.5454 30.4589C29.5297 29.8911 30.4465 29.3705 31.351 28.8296C31.4362 28.7783 31.4876 28.6038 31.489 28.4849C31.4984 27.4748 31.4944 26.4648 31.4944 25.348Z" fill="url(#paint2_linear_3606_29703)"/>
<path d="M17.0922 26.6292C17.0922 25.8545 17.0868 25.0783 17.0936 24.3036C17.1004 23.4964 17.5939 23.1921 18.2848 23.5843C19.6613 24.3644 21.0282 25.1635 22.4006 25.9505C22.7441 26.1465 22.8833 26.4277 22.8806 26.8239C22.8698 28.391 22.882 29.9595 22.8739 31.5266C22.8698 32.3175 22.352 32.6069 21.6556 32.2094C20.2954 31.4333 18.9446 30.6423 17.5844 29.8675C17.2396 29.6715 17.0801 29.4078 17.0882 29.0076C17.1031 28.2139 17.0922 27.4215 17.0922 26.6292ZM21.4582 30.4584C21.4582 29.3321 21.4609 28.3221 21.4542 27.312C21.4528 27.2066 21.4231 27.047 21.3514 27.0037C20.4333 26.4561 19.5058 25.9248 18.5093 25.3474C18.5093 26.4737 18.5038 27.4986 18.5174 28.5222C18.5187 28.6344 18.5931 28.7939 18.6837 28.848C19.5761 29.3794 20.4779 29.8932 21.4582 30.4584Z" fill="url(#paint3_linear_3606_29703)"/>
<defs>
<linearGradient id="paint0_linear_3606_29703" x1="-1.35211" y1="21.4986" x2="50.8394" y2="27.7859" gradientUnits="userSpaceOnUse">
<stop stop-color="#20D4FE"/>
<stop offset="1" stop-color="#B722FF"/>
</linearGradient>
<linearGradient id="paint1_linear_3606_29703" x1="19.6327" y1="18.7774" x2="30.0455" y2="20.7528" gradientUnits="userSpaceOnUse">
<stop stop-color="#20D4FE"/>
<stop offset="1" stop-color="#B722FF"/>
</linearGradient>
<linearGradient id="paint2_linear_3606_29703" x1="26.9644" y1="27.2716" x2="33.0636" y2="27.7457" gradientUnits="userSpaceOnUse">
<stop stop-color="#20D4FE"/>
<stop offset="1" stop-color="#B722FF"/>
</linearGradient>
<linearGradient id="paint3_linear_3606_29703" x1="16.9312" y1="27.272" x2="23.0285" y2="27.7462" gradientUnits="userSpaceOnUse">
<stop stop-color="#20D4FE"/>
<stop offset="1" stop-color="#B722FF"/>
</linearGradient>
</defs>
</svg>
