<svg width="45" height="50" viewBox="0 0 45 50" fill="none" xmlns="http://www.w3.org/2000/svg">
<path d="M6.90166 36.2027C6.90166 35.5969 6.90166 35.0774 6.90166 34.5089C6.74049 34.4974 6.58795 34.4787 6.43397 34.4773C5.42808 34.4744 4.42219 34.4902 3.41774 34.4715C1.53835 34.4356 0.0503787 32.9433 0.0215979 31.061C0.00289033 29.8939 0.00432937 28.7269 0.0215979 27.5598C0.0503787 25.6516 1.54842 24.1622 3.46091 24.1378C4.58912 24.1234 5.71733 24.1349 6.87863 24.1349C6.87863 23.5535 6.87863 23.0096 6.87863 22.4095C5.82669 22.4095 4.79058 22.4109 3.75447 22.4095C1.45776 22.4066 0.0201588 20.9733 0.0172807 18.6852C0.0158417 17.6434 0.00864649 16.6029 0.0201588 15.5611C0.0417445 13.5824 1.52827 12.0916 3.50264 12.07C4.61358 12.0585 5.72596 12.0685 6.87575 12.0685C6.87575 11.4972 6.87575 10.9533 6.87575 10.3446C5.87562 10.3446 4.87693 10.3446 3.87679 10.3446C1.4002 10.3431 0.0172807 8.95588 0.0158417 6.47065C0.0158417 5.46476 0.00576841 4.46031 0.0187198 3.45442C0.0446225 1.51603 1.53979 0.00791473 3.48681 0.00647569C16.1086 -0.00215856 28.7305 -0.00215856 41.3523 0.00647569C43.3281 0.00791473 44.8161 1.51459 44.8377 3.49327C44.8492 4.62436 44.8521 5.75545 44.8362 6.88654C44.8089 8.83068 43.3181 10.3187 41.3725 10.3417C40.2471 10.3546 39.1204 10.3446 37.9691 10.3446C37.9691 10.9302 37.9691 11.4613 37.9691 12.0685C38.1965 12.0685 38.4224 12.0642 38.6469 12.07C39.7938 12.0959 40.9566 12.0124 42.0834 12.1779C43.6821 12.4125 44.8017 13.8285 44.8319 15.4402C44.855 16.6432 44.8578 17.8463 44.8305 19.0479C44.7888 20.8999 43.295 22.3735 41.4372 22.4052C40.2932 22.4253 39.1477 22.4095 37.972 22.4095C37.972 22.9865 37.972 23.5175 37.972 24.1032C38.1116 24.1133 38.2641 24.132 38.4181 24.1335C39.4053 24.1363 40.3939 24.1248 41.3811 24.1378C43.3238 24.1637 44.8103 25.6531 44.8348 27.6015C44.8492 28.7499 44.8521 29.8997 44.8334 31.0481C44.8017 32.9605 43.3094 34.4471 41.3955 34.473C40.2673 34.4888 39.1391 34.4759 37.9763 34.4759C37.9763 35.0572 37.9763 35.6012 37.9763 36.2013C39.0268 36.2013 40.0629 36.1998 41.0991 36.2013C43.3972 36.2041 44.8334 37.6345 44.8377 39.9241C44.8391 40.9472 44.8449 41.9704 44.8362 42.9935C44.819 45.0413 43.3396 46.525 41.3005 46.5408C40.2068 46.5494 39.1132 46.5422 37.9432 46.5422C37.9432 47.3308 37.9461 48.0949 37.9432 48.8591C37.9404 49.6995 37.6525 49.9873 36.8093 49.9887C35.5343 49.9916 34.2593 49.993 32.9843 49.9887C32.2144 49.9858 31.9151 49.6822 31.9108 48.9094C31.9065 48.141 31.9093 47.3725 31.9093 46.5739C25.5891 46.5739 19.312 46.5739 12.9456 46.5739C12.9456 46.8703 12.9428 47.184 12.9456 47.4977C12.9687 50.1614 13.0982 50.0103 10.4259 49.9916C10.0129 49.9887 9.59986 49.9858 9.18686 49.9916C6.82251 50.0276 6.87863 50.0535 6.91029 47.6863C6.91461 47.3294 6.91029 46.9725 6.91029 46.5422C6.6009 46.5422 6.32172 46.548 6.04111 46.5408C4.93017 46.512 3.8034 46.5897 2.71405 46.4213C1.17571 46.1839 0.059013 44.7751 0.0230369 43.2195C-0.00574392 41.9819 -0.010061 40.7414 0.024476 39.5039C0.0748424 37.7108 1.56425 36.2459 3.36305 36.2056C4.52868 36.1826 5.69142 36.2027 6.90166 36.2027ZM36.2207 48.2446C36.2207 47.433 36.2178 46.6804 36.2207 45.9277C36.2236 45.1161 36.5143 44.8211 37.3201 44.8197C38.6311 44.8154 39.9421 44.824 41.253 44.8168C42.3942 44.8111 43.1065 44.1045 43.1152 42.972C43.1238 41.9128 43.1223 40.8537 43.1152 39.7946C43.108 38.6289 42.3999 37.9296 41.2243 37.9252C39.9133 37.9209 38.6023 37.9281 37.2913 37.9224C36.5229 37.9195 36.225 37.6158 36.2207 36.8388C36.2164 35.8329 36.2164 34.8284 36.2207 33.8225C36.225 33.0541 36.5272 32.7562 37.3043 32.7533C38.6325 32.749 39.9622 32.7591 41.2904 32.749C42.3913 32.7404 43.1036 32.0252 43.1123 30.92C43.1209 29.8608 43.1195 28.8017 43.1137 27.7426C43.1065 26.5654 42.4086 25.8632 41.2372 25.8574C39.9262 25.8517 38.6153 25.8589 37.3043 25.8546C36.5272 25.8517 36.2236 25.5524 36.2193 24.7853C36.2135 23.7795 36.2149 22.775 36.2193 21.7691C36.2221 20.992 36.52 20.6884 37.2885 20.6855C38.5994 20.6812 39.9104 20.6884 41.2214 20.6826C42.3985 20.6783 43.1065 19.9789 43.1137 18.8133C43.1209 17.7715 43.1195 16.731 43.1137 15.6892C43.108 14.4847 42.41 13.7925 41.1983 13.7896C39.8874 13.7853 38.5764 13.7925 37.2654 13.7867C36.5301 13.7839 36.2236 13.4745 36.2193 12.7334C36.2135 11.7102 36.2135 10.687 36.2193 9.66389C36.2236 8.92854 36.5315 8.62202 37.2726 8.61914C38.6009 8.61339 39.9306 8.62346 41.2588 8.61626C42.3942 8.60907 43.1036 7.89962 43.1108 6.76278C43.118 5.70364 43.118 4.64451 43.1108 3.58537C43.1065 2.44997 42.3971 1.72757 41.2689 1.72757C28.7003 1.72469 16.1317 1.72469 3.56308 1.72757C2.46653 1.72757 1.75133 2.45573 1.74413 3.55803C1.7355 4.61717 1.73838 5.6763 1.74413 6.73544C1.74989 7.91113 2.44926 8.61339 3.62064 8.61914C4.94888 8.6249 6.27855 8.61626 7.60679 8.62202C8.31336 8.6249 8.63139 8.93861 8.63714 9.63655C8.64578 10.6597 8.6429 11.6829 8.63858 12.706C8.6357 13.4817 8.33494 13.7867 7.5665 13.7896C6.25553 13.7939 4.94456 13.7867 3.63359 13.7925C2.46221 13.7968 1.74989 14.5005 1.74413 15.6618C1.73838 16.7037 1.73838 17.7441 1.74413 18.786C1.74989 19.989 2.44782 20.6812 3.6595 20.6855C4.97046 20.6898 6.28143 20.6826 7.5924 20.6884C8.32775 20.6913 8.63426 21.0021 8.63858 21.7418C8.64434 22.7649 8.64434 23.7881 8.63858 24.8112C8.63426 25.5452 8.32343 25.8531 7.58376 25.856C6.25553 25.8617 4.92585 25.8517 3.59762 25.8589C2.46653 25.8646 1.75277 26.5798 1.74557 27.7124C1.73838 28.7542 1.74125 29.7946 1.74557 30.8365C1.74989 32.0482 2.44207 32.7461 3.64511 32.7519C4.9201 32.7562 6.19509 32.7519 7.47008 32.7533C8.35653 32.7548 8.63858 33.0296 8.64002 33.9002C8.6429 34.8514 8.64146 35.8027 8.64002 36.7553C8.63858 37.6403 8.36229 37.9224 7.49167 37.9252C6.21667 37.9281 4.94168 37.9224 3.66669 37.9267C2.45646 37.9296 1.75133 38.626 1.74557 39.819C1.74125 40.8609 1.73981 41.9013 1.74557 42.9432C1.75277 44.1131 2.45502 44.8139 3.62928 44.8197C4.92154 44.8254 6.21524 44.8197 7.50749 44.8211C8.35077 44.8226 8.63714 45.1089 8.64002 45.9522C8.6429 46.7163 8.64002 47.4805 8.64002 48.2417C9.53798 48.2417 10.3568 48.2417 11.226 48.2417C11.226 47.4661 11.2245 46.7178 11.226 45.968C11.2289 45.1147 11.5095 44.8226 12.3412 44.8226C19.0745 44.8211 25.8078 44.8211 32.5411 44.8226C33.3412 44.8226 33.6319 45.1233 33.6362 45.9364C33.6391 46.702 33.6362 47.4675 33.6362 48.2475C34.5198 48.2446 35.3386 48.2446 36.2207 48.2446Z" fill="url(#paint0_linear_3603_29685)"/>
<path d="M7.45006 40.0798C8.92796 39.2365 10.3656 38.4278 11.7859 37.5902C11.9384 37.4996 12.0679 37.2334 12.0708 37.0463C12.0953 35.7368 12.1025 34.4258 12.0751 33.1148C12.0636 32.5809 12.2262 32.1967 12.6608 31.8744C13.3487 31.3635 14.0035 30.8066 14.7618 30.1979C14.5057 30.1849 14.356 30.1705 14.2064 30.1705C12.16 30.1691 10.1123 30.1749 8.06597 30.1634C7.76521 30.1619 7.59972 30.2396 7.44575 30.526C6.86006 31.6182 5.69011 32.1089 4.52881 31.7981C3.3934 31.4945 2.60337 30.4699 2.60337 29.3028C2.60481 28.1357 3.39628 27.1155 4.53456 26.8133C5.69731 26.5039 6.86006 26.9946 7.44718 28.0926C7.6026 28.3833 7.77385 28.4509 8.07029 28.4495C10.8347 28.4408 13.6005 28.4466 16.3649 28.4379C16.5419 28.4379 16.8024 28.3976 16.8844 28.2796C17.8054 26.9385 18.6991 25.5786 19.6589 24.1352C18.8732 24.1352 18.1824 24.1381 17.4931 24.1338C16.8067 24.1309 16.4124 23.8258 16.398 23.2934C16.3836 22.7422 16.7923 22.4127 17.5047 22.4112C20.79 22.4098 24.0768 22.4098 27.3621 22.4112C28.0485 22.4112 28.4442 22.7206 28.4572 23.2516C28.4701 23.8028 28.0615 24.1309 27.3491 24.1338C26.5965 24.1366 25.8439 24.1338 25.0539 24.1338C25.0539 25.2792 25.0539 26.3974 25.0539 27.5817C25.2453 27.5817 25.4367 27.5817 25.628 27.5817C28.4831 27.5817 31.3382 27.5803 34.1918 27.5817C35.0754 27.5817 35.356 27.8594 35.3574 28.7329C35.3603 29.4151 35.4049 30.1015 35.3387 30.7778C35.3027 31.1376 35.1516 31.5535 34.9099 31.8139C34.032 32.7608 33.0852 33.6444 32.1886 34.5755C32.0361 34.7338 31.931 35.0014 31.9224 35.223C31.8951 35.9929 31.7181 36.8463 31.9843 37.514C32.2419 38.1601 32.9744 38.6177 33.5025 39.1545C33.8421 39.4999 34.1644 39.8697 34.5386 40.1719C34.7516 40.3431 35.0494 40.4496 35.3243 40.5014C35.9618 40.6223 36.4036 40.4453 36.7936 39.815C37.398 38.8408 38.6442 38.5544 39.7105 38.9559C40.7696 39.3545 41.4503 40.3964 41.3884 41.5232C41.328 42.6384 40.5293 43.5925 39.4198 43.8731C38.329 44.1494 37.1533 43.6918 36.6094 42.6873C36.3993 42.2988 36.1618 42.1722 35.7733 42.2355C34.599 42.4297 33.7227 42.0024 32.9614 41.0914C32.2505 40.241 31.3785 39.5272 30.6316 38.7026C30.3927 38.4393 30.2287 38.0234 30.2071 37.6665C30.1495 36.7009 30.2013 35.7281 30.1812 34.7597C30.1711 34.3136 30.3107 33.9711 30.6316 33.6617C31.4072 32.9148 32.1196 32.096 32.9369 31.3981C33.6133 30.821 33.7615 30.1662 33.5831 29.3345C32.1958 29.3345 30.8028 29.3345 29.3264 29.3345C29.3264 30.0713 29.3005 30.8167 29.335 31.5607C29.3609 32.1305 29.1465 32.5133 28.663 32.7997C28.2154 33.0645 27.8139 33.4084 27.3592 33.6559C26.8786 33.9164 26.6814 34.2502 26.7289 34.8071C26.7836 35.449 26.762 36.0994 26.7332 36.7441C26.7188 37.0765 26.8311 37.2406 27.1261 37.4003C28.2629 38.0162 28.7436 39.3488 28.2989 40.5403C27.86 41.716 26.6109 42.4312 25.4165 42.1909C24.1286 41.9304 23.2292 40.8166 23.2997 39.5258C23.3515 38.576 23.8062 37.845 24.6423 37.3974C24.9474 37.2334 25.0294 37.0549 25.0222 36.7326C25.0021 35.7641 25.0265 34.7942 25.0093 33.8243C25.0006 33.3652 25.1676 33.0386 25.5561 32.7939C26.1331 32.4298 26.7102 32.0643 27.2513 31.6513C27.4268 31.5175 27.565 31.2383 27.5851 31.0138C27.6326 30.4656 27.601 29.9115 27.601 29.333C26.7318 29.333 25.913 29.333 25.0927 29.333C25.0726 29.3589 25.0294 29.3892 25.0323 29.4122C25.1805 30.3245 24.6898 30.9131 24.0724 31.493C23.0133 32.4874 21.9973 33.5307 20.9843 34.574C20.8317 34.7309 20.7626 34.9957 20.7137 35.2216C20.6691 35.4274 20.7195 35.6519 20.7022 35.8663C20.6389 36.6275 20.6921 37.2305 21.498 37.727C22.4506 38.3141 22.6564 39.5862 22.229 40.6238C21.7973 41.6714 20.7281 42.3247 19.6114 42.2254C18.499 42.1261 17.5766 41.3044 17.319 40.1848C17.0744 39.1271 17.5608 37.9687 18.5465 37.4334C18.9063 37.2377 19.0099 37.0261 18.9912 36.6419C18.9581 36.0159 18.9998 35.3856 18.9768 34.7582C18.9595 34.3107 19.1106 33.9725 19.4286 33.6602C20.6331 32.4788 21.8261 31.2844 23.009 30.0813C23.1457 29.9432 23.2781 29.7259 23.2795 29.5431C23.2997 27.7673 23.291 25.9916 23.291 24.1755C22.7226 24.1755 22.1758 24.1755 21.6491 24.1755C21.4491 24.5079 21.2591 24.849 21.0461 25.1742C20.0503 26.6881 19.0487 28.1976 18.0414 29.7043C17.9349 29.864 17.7867 30.0051 17.6356 30.1259C16.4858 31.0455 15.3375 31.965 14.1747 32.8659C13.9085 33.0717 13.7948 33.2846 13.802 33.63C13.825 34.8676 13.7631 36.1095 13.8279 37.3456C13.8711 38.1673 13.5487 38.6235 12.8479 39.0005C11.252 39.8567 9.69065 40.7749 8.12785 41.6901C7.91919 41.8124 7.72204 42.0369 7.62707 42.2614C7.14499 43.3968 6.06139 44.0818 4.8972 43.9436C3.74597 43.8055 2.81059 42.9003 2.62927 41.7433C2.45515 40.6381 3.08833 39.4883 4.13163 39.0163C5.21955 38.5242 6.42834 38.8278 7.22845 39.792C7.29465 39.874 7.35653 39.9589 7.45006 40.0798ZM5.17926 30.1634C5.64263 30.1691 6.0398 29.7791 6.04556 29.3143C6.05131 28.8495 5.66133 28.4538 5.19652 28.448C4.73027 28.4423 4.33598 28.8308 4.33022 29.2971C4.3259 29.7619 4.71444 30.1576 5.17926 30.1634ZM19.8532 38.7904C19.3884 38.7832 18.9912 39.1689 18.984 39.6366C18.9768 40.1014 19.3639 40.5 19.8287 40.5057C20.2921 40.5129 20.6907 40.1244 20.6979 39.6596C20.7065 39.1948 20.3194 38.7976 19.8532 38.7904ZM25.8497 38.7904C25.3834 38.8048 25.0035 39.2092 25.0193 39.674C25.0337 40.1388 25.4395 40.5201 25.9029 40.5057C26.3677 40.4914 26.7491 40.0841 26.7347 39.6222C26.7188 39.1559 26.313 38.776 25.8497 38.7904ZM5.1994 40.5144C4.73459 40.5072 4.33742 40.8929 4.33022 41.3605C4.32302 41.8254 4.71013 42.224 5.17494 42.2297C5.63831 42.2369 6.03692 41.8484 6.04412 41.3836C6.05275 40.9188 5.66565 40.5216 5.1994 40.5144ZM38.7996 42.2297C39.263 42.2326 39.6601 41.8426 39.663 41.3778C39.6659 40.913 39.2759 40.5187 38.8111 40.5144C38.3449 40.5115 37.952 40.9 37.9477 41.3663C37.9448 41.8311 38.3348 42.2254 38.7996 42.2297Z" fill="url(#paint1_linear_3603_29685)"/>
<path d="M28.8949 6.03415C26.5795 6.03415 24.2626 6.03415 21.9472 6.03415C21.786 6.03415 21.6205 6.04998 21.4637 6.0212C21.0017 5.93342 20.7182 5.64992 20.7168 5.1736C20.7154 4.69728 20.9974 4.41091 21.4608 4.32457C21.6349 4.29291 21.8191 4.31018 21.9975 4.31018C26.5938 4.31018 31.1902 4.31018 35.7865 4.31018C35.9663 4.31018 36.1491 4.29147 36.3247 4.32313C36.788 4.40803 37.0701 4.6944 37.0715 5.16928C37.073 5.64561 36.7895 5.93054 36.3275 6.01832C36.1707 6.04854 36.0052 6.03127 35.844 6.03271C33.5272 6.03415 31.2103 6.03415 28.8949 6.03415Z" fill="url(#paint2_linear_3603_29685)"/>
<path d="M29.0268 17.2241C28.4094 16.6327 27.8525 16.1031 27.2985 15.5692C27.169 15.4454 27.0352 15.3202 26.9316 15.1763C26.6495 14.7864 26.6711 14.3906 27.0093 14.0568C27.3474 13.7215 27.7806 13.6711 28.1245 13.9978C29.0498 14.8741 29.9507 15.7764 30.8314 16.696C31.181 17.0615 31.1264 17.5062 30.7824 17.8602C29.9449 18.7236 29.0944 19.5755 28.231 20.4116C27.8367 20.7929 27.3201 20.7728 26.979 20.4173C26.6409 20.0662 26.6509 19.5726 27.0467 19.1697C27.6611 18.5423 28.3001 17.9364 29.0268 17.2241Z" fill="url(#paint3_linear_3603_29685)"/>
<path d="M15.8593 17.25C16.5385 17.9148 17.1616 18.5077 17.766 19.1193C18.1977 19.5567 18.2222 20.0302 17.8711 20.4072C17.5444 20.7583 17.045 20.8044 16.668 20.4432C15.7758 19.587 14.8994 18.7106 14.0432 17.8184C13.6863 17.4471 13.7122 16.9996 14.0864 16.6139C14.9109 15.7649 15.7499 14.9288 16.5975 14.1028C17.0033 13.707 17.4883 13.7027 17.8452 14.0467C18.215 14.405 18.2092 14.9014 17.789 15.3332C17.1789 15.9606 16.5471 16.5679 15.8593 17.25Z" fill="url(#paint4_linear_3603_29685)"/>
<path d="M10.2729 5.2241C10.7162 5.52199 11.1507 5.80404 11.5767 6.10192C12.0991 6.46744 12.2243 6.95527 11.9206 7.38698C11.6271 7.80287 11.145 7.86475 10.6399 7.53377C9.84553 7.01283 9.05262 6.48758 8.26978 5.95082C7.60063 5.49177 7.60351 4.84851 8.2741 4.38946C9.05838 3.8527 9.84841 3.32601 10.6442 2.80651C11.1666 2.46546 11.676 2.55036 11.9566 3.00078C12.2243 3.42962 12.0933 3.89731 11.5954 4.24412C11.1695 4.54056 10.7363 4.82693 10.306 5.11905C10.2945 5.12625 10.2945 5.14927 10.2729 5.2241Z" fill="url(#paint5_linear_3603_29685)"/>
<path d="M16.5577 5.17462C16.044 4.82781 15.5978 4.53424 15.1604 4.22773C14.6653 3.88236 14.5402 3.41323 14.815 2.98296C15.0899 2.55268 15.5892 2.46058 16.0886 2.78149C16.9016 3.30674 17.7104 3.84063 18.5062 4.39178C19.1451 4.835 19.148 5.48977 18.5148 5.93155C17.706 6.49566 16.8815 7.03818 16.054 7.5735C15.5863 7.8757 15.1057 7.78072 14.8265 7.36772C14.5473 6.95471 14.6466 6.47407 15.1014 6.15173C15.5518 5.8337 16.0195 5.53582 16.5577 5.17462Z" fill="url(#paint6_linear_3603_29685)"/>
<path d="M25.1181 15.4523C24.9483 15.7574 24.8764 15.992 24.7224 16.1488C23.6042 17.2886 22.4775 18.4197 21.3378 19.5378C20.942 19.9263 20.4355 19.9134 20.0887 19.5623C19.7447 19.214 19.7476 18.7147 20.1405 18.3146C21.2471 17.1893 22.3681 16.0769 23.4877 14.9645C23.7611 14.6925 24.1093 14.5256 24.4562 14.7472C24.7166 14.9113 24.8936 15.2034 25.1181 15.4523Z" fill="url(#paint7_linear_3603_29685)"/>
<path d="M4.32113 17.2624C4.30818 17.7286 3.90525 18.1114 3.44043 18.0985C2.97275 18.0855 2.59284 17.684 2.60579 17.2178C2.61874 16.7487 3.01736 16.3702 3.48505 16.3831C3.95417 16.3961 4.33408 16.7961 4.32113 17.2624Z" fill="url(#paint8_linear_3603_29685)"/>
<path d="M5.19241 17.1959C5.21544 16.7282 5.62557 16.3569 6.09038 16.3799C6.55663 16.4029 6.93078 16.8145 6.90631 17.2779C6.88329 17.7427 6.47028 18.1183 6.00691 18.0953C5.54354 18.0722 5.16939 17.6607 5.19241 17.1959Z" fill="url(#paint9_linear_3603_29685)"/>
<path d="M8.61368 16.3831C9.07993 16.3702 9.48142 16.7515 9.49294 17.2178C9.50589 17.6826 9.1231 18.0855 8.65685 18.097C8.1906 18.11 7.79055 17.7286 7.7776 17.2609C7.76609 16.7947 8.14456 16.3961 8.61368 16.3831Z" fill="url(#paint10_linear_3603_29685)"/>
<path d="M11.2438 16.3831C11.7115 16.3946 12.0928 16.7946 12.0799 17.2623C12.0683 17.7286 11.6654 18.1114 11.2006 18.0984C10.7329 18.0855 10.353 17.6854 10.3645 17.2192C10.3775 16.75 10.7761 16.3716 11.2438 16.3831Z" fill="url(#paint11_linear_3603_29685)"/>
<path d="M33.6452 16.3829C34.1129 16.3901 34.4985 16.7844 34.4913 17.2521C34.4841 17.7183 34.087 18.1054 33.6222 18.0982C33.1545 18.0911 32.7702 17.6953 32.7774 17.2291C32.7832 16.7599 33.1775 16.3757 33.6452 16.3829Z" fill="url(#paint12_linear_3603_29685)"/>
<path d="M37.0768 17.2262C37.0854 17.6925 36.6998 18.0897 36.2335 18.0983C35.7673 18.1069 35.3701 17.7227 35.3615 17.255C35.3528 16.7873 35.7356 16.3916 36.2048 16.383C36.6724 16.3743 37.0682 16.7585 37.0768 17.2262Z" fill="url(#paint13_linear_3603_29685)"/>
<path d="M38.8112 18.0982C38.345 18.101 37.9521 17.7125 37.9492 17.2448C37.9464 16.7757 38.332 16.3857 38.8011 16.3828C39.2688 16.38 39.6603 16.7671 39.6646 17.2347C39.666 17.701 39.2775 18.0953 38.8112 18.0982Z" fill="url(#paint14_linear_3603_29685)"/>
<path d="M41.4167 16.3832C41.8844 16.3976 42.2643 16.7991 42.2499 17.2653C42.2355 17.7316 41.8312 18.1129 41.3663 18.0985C40.8987 18.0842 40.5202 17.6812 40.5346 17.215C40.549 16.7458 40.949 16.3688 41.4167 16.3832Z" fill="url(#paint15_linear_3603_29685)"/>
<defs>
<linearGradient id="paint0_linear_3603_29685" x1="-1.11646e-07" y1="11.8001" x2="46.553" y2="35.0407" gradientUnits="userSpaceOnUse">
<stop stop-color="#20D4FE"/>
<stop offset="1" stop-color="#B722FF"/>
</linearGradient>
<linearGradient id="paint1_linear_3603_29685" x1="2.60059" y1="27.4963" x2="27.7055" y2="52.6461" gradientUnits="userSpaceOnUse">
<stop stop-color="#20D4FE"/>
<stop offset="1" stop-color="#B722FF"/>
</linearGradient>
<linearGradient id="paint2_linear_3603_29685" x1="20.7168" y1="4.71387" x2="21.4593" y2="8.61188" gradientUnits="userSpaceOnUse">
<stop stop-color="#20D4FE"/>
<stop offset="1" stop-color="#B722FF"/>
</linearGradient>
<linearGradient id="paint3_linear_3603_29685" x1="26.7363" y1="15.4089" x2="31.7445" y2="17.1555" gradientUnits="userSpaceOnUse">
<stop stop-color="#20D4FE"/>
<stop offset="1" stop-color="#B722FF"/>
</linearGradient>
<linearGradient id="paint4_linear_3603_29685" x1="13.79" y1="15.4244" x2="18.7882" y2="17.1686" gradientUnits="userSpaceOnUse">
<stop stop-color="#20D4FE"/>
<stop offset="1" stop-color="#B722FF"/>
</linearGradient>
<linearGradient id="paint5_linear_3603_29685" x1="7.76953" y1="3.81266" x2="12.3703" y2="5.9628" gradientUnits="userSpaceOnUse">
<stop stop-color="#20D4FE"/>
<stop offset="1" stop-color="#B722FF"/>
</linearGradient>
<linearGradient id="paint6_linear_3603_29685" x1="14.6709" y1="3.80779" x2="19.2712" y2="5.94931" gradientUnits="userSpaceOnUse">
<stop stop-color="#20D4FE"/>
<stop offset="1" stop-color="#B722FF"/>
</linearGradient>
<linearGradient id="paint7_linear_3603_29685" x1="19.8379" y1="15.8677" x2="25.0189" y2="18.8054" gradientUnits="userSpaceOnUse">
<stop stop-color="#20D4FE"/>
<stop offset="1" stop-color="#B722FF"/>
</linearGradient>
<linearGradient id="paint8_linear_3603_29685" x1="2.60547" y1="16.7878" x2="4.3043" y2="17.7333" gradientUnits="userSpaceOnUse">
<stop stop-color="#20D4FE"/>
<stop offset="1" stop-color="#B722FF"/>
</linearGradient>
<linearGradient id="paint9_linear_3603_29685" x1="5.19141" y1="16.7842" x2="6.89092" y2="17.7293" gradientUnits="userSpaceOnUse">
<stop stop-color="#20D4FE"/>
<stop offset="1" stop-color="#B722FF"/>
</linearGradient>
<linearGradient id="paint10_linear_3603_29685" x1="7.77734" y1="16.7874" x2="9.47546" y2="17.7333" gradientUnits="userSpaceOnUse">
<stop stop-color="#20D4FE"/>
<stop offset="1" stop-color="#B722FF"/>
</linearGradient>
<linearGradient id="paint11_linear_3603_29685" x1="10.3643" y1="16.7878" x2="12.063" y2="17.7332" gradientUnits="userSpaceOnUse">
<stop stop-color="#20D4FE"/>
<stop offset="1" stop-color="#B722FF"/>
</linearGradient>
<linearGradient id="paint12_linear_3603_29685" x1="32.7773" y1="16.7877" x2="34.475" y2="17.7317" gradientUnits="userSpaceOnUse">
<stop stop-color="#20D4FE"/>
<stop offset="1" stop-color="#B722FF"/>
</linearGradient>
<linearGradient id="paint13_linear_3603_29685" x1="35.3613" y1="16.7877" x2="37.0598" y2="17.733" gradientUnits="userSpaceOnUse">
<stop stop-color="#20D4FE"/>
<stop offset="1" stop-color="#B722FF"/>
</linearGradient>
<linearGradient id="paint14_linear_3603_29685" x1="37.9492" y1="16.7876" x2="39.6474" y2="17.7328" gradientUnits="userSpaceOnUse">
<stop stop-color="#20D4FE"/>
<stop offset="1" stop-color="#B722FF"/>
</linearGradient>
<linearGradient id="paint15_linear_3603_29685" x1="40.5342" y1="16.7878" x2="42.2332" y2="17.7334" gradientUnits="userSpaceOnUse">
<stop stop-color="#20D4FE"/>
<stop offset="1" stop-color="#B722FF"/>
</linearGradient>
</defs>
</svg>
